<?xml version="1.0" encoding="UTF-8"?>
<!DOCTYPE svg PUBLIC "-//W3C//DTD SVG 1.1//EN" "http://www.w3.org/Graphics/SVG/1.1/DTD/svg11.dtd">
<svg xmlns="http://www.w3.org/2000/svg" version="1.1" width="1008px" height="213px" style="shape-rendering:geometricPrecision; text-rendering:geometricPrecision; image-rendering:optimizeQuality; fill-rule:evenodd; clip-rule:evenodd" xmlns:xlink="http://www.w3.org/1999/xlink">
<g><path style="opacity:1" fill="#fefefe" d="M -0.5,-0.5 C 335.5,-0.5 671.5,-0.5 1007.5,-0.5C 1007.5,70.5 1007.5,141.5 1007.5,212.5C 671.5,212.5 335.5,212.5 -0.5,212.5C -0.5,141.5 -0.5,70.5 -0.5,-0.5 Z"/></g>
<g><path style="opacity:1" fill="#010101" d="M 55.5,9.5 C 90.195,9.05579 124.862,9.55579 159.5,11C 183.481,18.648 197.981,34.8147 203,59.5C 203.667,90.8333 203.667,122.167 203,153.5C 197.831,182.669 180.665,199.835 151.5,205C 120.5,205.667 89.5,205.667 58.5,205C 30.7959,199.63 13.9626,183.13 8,155.5C 7.03478,121.461 7.36812,87.4607 9,53.5C 16.6046,30.3931 32.1046,15.7265 55.5,9.5 Z"/></g>
<g><path style="opacity:1" fill="#31af5c" d="M 721.5,38.5 C 729.5,38.5 737.5,38.5 745.5,38.5C 745.5,82.1667 745.5,125.833 745.5,169.5C 737.5,169.5 729.5,169.5 721.5,169.5C 721.5,125.833 721.5,82.1667 721.5,38.5 Z"/></g>
<g><path style="opacity:1" fill="#33b05d" d="M 764.5,38.5 C 772.5,38.5 780.5,38.5 788.5,38.5C 788.5,82.1667 788.5,125.833 788.5,169.5C 780.5,169.5 772.5,169.5 764.5,169.5C 764.5,125.833 764.5,82.1667 764.5,38.5 Z"/></g>
<g><path style="opacity:1" fill="#31af5b" d="M 337.5,44.5 C 337.5,52.8333 337.5,61.1667 337.5,69.5C 324.833,69.5 312.167,69.5 299.5,69.5C 299.5,102.833 299.5,136.167 299.5,169.5C 291.167,169.5 282.833,169.5 274.5,169.5C 274.5,136.167 274.5,102.833 274.5,69.5C 262.345,68.5048 250.011,68.1714 237.5,68.5C 237.5,60.5 237.5,52.5 237.5,44.5C 270.833,44.5 304.167,44.5 337.5,44.5 Z"/></g>
<g><path style="opacity:1" fill="#fbfbfb" d="M 104.5,114.5 C 105.043,114.44 105.376,114.107 105.5,113.5C 95.5222,112.501 85.5222,112.168 75.5,112.5C 71.5075,112.755 68.6742,111.089 67,107.5C 66.3333,89.5 66.3333,71.5 67,53.5C 68.1667,51.6667 69.6667,50.1667 71.5,49C 85.1667,48.3333 98.8333,48.3333 112.5,49C 116.275,50.4421 119.108,52.9421 121,56.5C 121.499,61.8229 121.666,67.1563 121.5,72.5C 129.908,72.5959 133.741,76.9292 133,85.5C 134.666,82.6212 137.166,81.7879 140.5,83C 141.804,83.804 142.471,84.9707 142.5,86.5C 140.797,94.3118 138.631,101.979 136,109.5C 133.119,111.028 130.786,110.362 129,107.5C 128.64,105.392 127.973,103.392 127,101.5C 125.021,108.053 124.354,114.72 125,121.5C 130.667,133.833 136.333,146.167 142,158.5C 142.648,162.693 140.815,165.026 136.5,165.5C 134.088,165.594 132.255,164.594 131,162.5C 125.757,150.35 120.257,138.35 114.5,126.5C 113.287,131.825 112.12,137.158 111,142.5C 106.273,150.562 100.773,158.062 94.5,165C 86.6067,166.023 84.44,162.857 88,155.5C 93.0747,149.687 97.408,143.354 101,136.5C 102.06,129.138 103.227,121.804 104.5,114.5 Z"/></g>
<g><path style="opacity:1" fill="#f9f9f9" d="M 129.5,52.5 C 139.827,51.0416 144.66,55.375 144,65.5C 141.747,71.9258 137.247,74.4258 130.5,73C 124.673,69.8672 122.507,65.0339 124,58.5C 125.36,55.9774 127.193,53.9774 129.5,52.5 Z"/></g>
<g><path style="opacity:1" fill="#0e0e0e" d="M 87.5,68.5 C 91.5138,68.3345 95.5138,68.5012 99.5,69C 100,69.5 100.5,70 101,70.5C 102.572,75.2081 104.739,79.5414 107.5,83.5C 105.474,86.5305 104.14,89.8638 103.5,93.5C 100.5,93.8333 99.1667,92.5 99.5,89.5C 95.1667,89.5 90.8333,89.5 86.5,89.5C 86.9342,92.1662 85.9342,93.3329 83.5,93C 82.358,89.7115 81.0247,86.5449 79.5,83.5C 81.4843,80.0671 82.9843,76.4004 84,72.5C 85.0319,70.9733 86.1986,69.64 87.5,68.5 Z"/></g>
<g><path style="opacity:1" fill="#82ce9b" d="M 337.5,44.5 C 304.167,44.5 270.833,44.5 237.5,44.5C 237.5,52.5 237.5,60.5 237.5,68.5C 250.011,68.1714 262.345,68.5048 274.5,69.5C 261.833,69.5 249.167,69.5 236.5,69.5C 236.5,60.8333 236.5,52.1667 236.5,43.5C 270.337,43.1684 304.004,43.5017 337.5,44.5 Z"/></g>
<g><path style="opacity:1" fill="#fbfbfb" d="M 99.5,73.5 C 99.5,74.5 99.5,75.5 99.5,76.5C 95.1667,76.5 90.8333,76.5 86.5,76.5C 86.6799,72.5878 88.8465,70.9211 93,71.5C 94.8333,71.6667 96.6667,71.8333 98.5,72C 99.056,72.3826 99.3893,72.8826 99.5,73.5 Z"/></g>
<g><path style="opacity:1" fill="#32af5c" d="M 455.5,72.5 C 466.432,71.177 476.765,73.0104 486.5,78C 490.639,80.6391 494.639,83.4724 498.5,86.5C 501.375,83.2796 504.375,80.1129 507.5,77C 509.473,76.5045 511.473,76.3379 513.5,76.5C 513.5,107.5 513.5,138.5 513.5,169.5C 511.473,169.662 509.473,169.495 507.5,169C 504.379,165.257 501.379,161.424 498.5,157.5C 479.924,173.56 459.924,175.727 438.5,164C 418.626,147.69 412.792,127.19 421,102.5C 428.059,87.2667 439.559,77.2667 455.5,72.5 Z"/></g>
<g><path style="opacity:1" fill="#32af5c" d="M 661.5,72.5 C 681.286,70.4199 697.286,77.0866 709.5,92.5C 694.833,110.5 680.167,128.5 665.5,146.5C 677.399,148.467 686.232,144.134 692,133.5C 698.015,139.348 703.848,145.348 709.5,151.5C 690.33,173.678 667.996,177.511 642.5,163C 623.526,146.279 618.026,125.779 626,101.5C 633.53,86.4616 645.363,76.795 661.5,72.5 Z"/></g>
<g><path style="opacity:1" fill="#32af5c" d="M 840.5,72.5 C 860.286,70.4199 876.286,77.0866 888.5,92.5C 873.833,110.5 859.167,128.5 844.5,146.5C 856.399,148.467 865.232,144.134 871,133.5C 877.015,139.348 882.848,145.348 888.5,151.5C 869.344,173.679 847.011,177.512 821.5,163C 802.25,146.37 796.75,125.87 805,101.5C 812.53,86.4616 824.363,76.795 840.5,72.5 Z"/></g>
<g><path style="opacity:1" fill="#81ce9a" d="M 549.5,76.5 C 540.651,76.1736 531.984,76.507 523.5,77.5C 522.957,77.44 522.624,77.1067 522.5,76.5C 531.658,75.1782 540.658,75.1782 549.5,76.5 Z"/></g>
<g><path style="opacity:1" fill="#82ce9b" d="M 590.5,76.5 C 599.675,75.1778 609.008,75.1778 618.5,76.5C 618.376,77.1067 618.043,77.44 617.5,77.5C 608.682,76.5067 599.682,76.1734 590.5,76.5 Z"/></g>
<g><path style="opacity:1" fill="#989898" d="M 99.5,73.5 C 100.434,74.5676 100.768,75.901 100.5,77.5C 95.6367,77.8195 90.97,77.4861 86.5,76.5C 90.8333,76.5 95.1667,76.5 99.5,76.5C 99.5,75.5 99.5,74.5 99.5,73.5 Z"/></g>
<g><path style="opacity:1" fill="#32af5c" d="M 348.5,75.5 C 350.604,75.2011 352.604,75.5344 354.5,76.5C 356.817,80.1464 359.484,83.4797 362.5,86.5C 368.007,81.7466 374.34,78.5799 381.5,77C 391.494,76.5002 401.494,76.3335 411.5,76.5C 411.5,84.1667 411.5,91.8333 411.5,99.5C 403.16,99.3336 394.827,99.5003 386.5,100C 379.763,101.736 375.263,105.903 373,112.5C 372.5,131.497 372.333,150.497 372.5,169.5C 364.5,169.5 356.5,169.5 348.5,169.5C 348.5,138.167 348.5,106.833 348.5,75.5 Z"/></g>
<g><path style="opacity:1" fill="#32af5c" d="M 549.5,76.5 C 557.062,95.1761 564.062,114.176 570.5,133.5C 577.463,114.581 584.129,95.5807 590.5,76.5C 599.682,76.1734 608.682,76.5067 617.5,77.5C 606.013,107.812 594.513,138.146 583,168.5C 574.892,169.815 566.725,169.815 558.5,168.5C 546.543,138.256 534.876,107.923 523.5,77.5C 531.984,76.507 540.651,76.1736 549.5,76.5 Z"/></g>
<g><path style="opacity:1" fill="#59be7b" d="M 906.5,76.5 C 904.833,76.5 903.167,76.5 901.5,76.5C 901.5,107.5 901.5,138.5 901.5,169.5C 900.502,138.338 900.168,107.004 900.5,75.5C 902.735,75.2053 904.735,75.5386 906.5,76.5 Z"/></g>
<g><path style="opacity:1" fill="#30af5b" d="M 906.5,76.5 C 909.158,79.8029 911.825,83.1362 914.5,86.5C 920.276,82.2789 926.609,79.1122 933.5,77C 943.494,76.5002 953.494,76.3335 963.5,76.5C 963.5,84.1667 963.5,91.8333 963.5,99.5C 955.16,99.3336 946.827,99.5003 938.5,100C 933.112,102.055 928.946,105.555 926,110.5C 924.549,130.112 924.049,149.779 924.5,169.5C 916.833,169.5 909.167,169.5 901.5,169.5C 901.5,138.5 901.5,107.5 901.5,76.5C 903.167,76.5 904.833,76.5 906.5,76.5 Z"/></g>
<g><path style="opacity:1" fill="#eaeaea" d="M 83.5,81.5 C 84.8333,81.5 86.1667,81.5 87.5,81.5C 87.5,82.8333 87.5,84.1667 87.5,85.5C 86.1667,85.5 84.8333,85.5 83.5,85.5C 83.5,84.1667 83.5,82.8333 83.5,81.5 Z"/></g>
<g><path style="opacity:1" fill="#e9e9e9" d="M 98.5,81.5 C 99.8333,81.5 101.167,81.5 102.5,81.5C 102.5,82.8333 102.5,84.1667 102.5,85.5C 99.5,85.8333 98.1667,84.5 98.5,81.5 Z"/></g>
<g><path style="opacity:1" fill="#fcfefd" d="M 459.5,96.5 C 474.555,95.3786 484.388,102.045 489,116.5C 490.616,131.442 484.449,141.609 470.5,147C 456.183,149.099 447.016,143.266 443,129.5C 439.554,113.725 445.054,102.725 459.5,96.5 Z"/></g>
<g><path style="opacity:1" fill="#f8fcf9" d="M 664.5,96.5 C 668.703,96.0761 672.703,96.5761 676.5,98C 667.853,110.141 658.853,121.975 649.5,133.5C 643.368,116.548 648.368,104.215 664.5,96.5 Z"/></g>
<g><path style="opacity:1" fill="#f8fcf9" d="M 843.5,96.5 C 847.703,96.0761 851.703,96.5761 855.5,98C 846.853,110.141 837.853,121.975 828.5,133.5C 822.179,116.485 827.179,104.151 843.5,96.5 Z"/></g>
<g><path style="opacity:1" fill="#434343" d="M 75.5,112.5 C 85.5222,112.168 95.5222,112.501 105.5,113.5C 105.376,114.107 105.043,114.44 104.5,114.5C 94.8333,113.833 85.1667,113.167 75.5,112.5 Z"/></g>
<g><path style="opacity:1" fill="#33b05d" d="M 983.5,146.5 C 997.944,144.78 1004.78,151.113 1004,165.5C 998.705,175.723 990.872,178.223 980.5,173C 971.892,163.088 972.892,154.255 983.5,146.5 Z"/></g>
</svg>
